<svg enable-background="new 0 0 60 60" height="512" viewBox="0 0 60 60" width="512" xmlns="http://www.w3.org/2000/svg"><path d="m1 10h5v40h-5z" fill="#bde3ff"/><path d="m5 7h5v46h-5z" fill="#83bbed"/><path d="m9 4.001h6v52h-6z" fill="#5792d3"/><path d="m53 9.999h6v40h-6z" fill="#bde3ff"/><path d="m50 6.999h5v46h-5z" fill="#83bbed"/><path d="m44.001 3.998h7v52h-7z" fill="#5792d3"/><path d="m34 1h-2-19v58h19 2 13v-58z" fill="#366db6"/><g fill="#4d007e"><path d="m51 57h-4c-.552 0-1-.447-1-1v-52c0-.553.448-1 1-1h4c.552 0 1 .447 1 1v52c0 .553-.448 1-1 1zm-3-2h2v-50h-2z"/><path d="m55 54h-4c-.552 0-1-.447-1-1v-46c0-.553.448-1 1-1h4c.552 0 1 .447 1 1v46c0 .553-.448 1-1 1zm-3-2h2v-44h-2z"/><path d="m59 51h-4c-.552 0-1-.447-1-1v-40c0-.553.448-1 1-1h4c.552 0 1 .447 1 1v40c0 .553-.448 1-1 1zm-3-2h2v-38h-2z"/><path d="m47 60h-34c-.552 0-1-.447-1-1v-58c0-.553.448-1 1-1h34c.552 0 1 .447 1 1v58c0 .553-.448 1-1 1zm-33-2h32v-56h-32z"/><path d="m13 57h-4c-.552 0-1-.447-1-1v-52c0-.553.448-1 1-1h4c.552 0 1 .447 1 1v52c0 .553-.448 1-1 1zm-3-2h2v-50h-2z"/><path d="m9 54h-4c-.552 0-1-.447-1-1v-46c0-.553.448-1 1-1h4c.552 0 1 .447 1 1v46c0 .553-.448 1-1 1zm-3-2h2v-44h-2z"/><path d="m5 51h-4c-.552 0-1-.447-1-1v-40c0-.553.448-1 1-1h4c.552 0 1 .447 1 1v40c0 .553-.448 1-1 1zm-3-2h2v-38h-2z"/><path d="m24 42c-2.206 0-4-1.794-4-4s1.794-4 4-4 4 1.794 4 4-1.794 4-4 4zm0-6c-1.103 0-2 .897-2 2s.897 2 2 2 2-.897 2-2-.897-2-2-2z"/><path d="m34 38c-2.206 0-4-1.794-4-4s1.794-4 4-4 4 1.794 4 4-1.794 4-4 4zm0-6c-1.103 0-2 .897-2 2s.897 2 2 2 2-.897 2-2-.897-2-2-2z"/><path d="m27 39c-.552 0-1-.447-1-1v-15c0-.553.448-1 1-1s1 .447 1 1v15c0 .553-.448 1-1 1z"/><path d="m37 35c-.552 0-1-.447-1-1v-15c0-.553.448-1 1-1s1 .447 1 1v15c0 .553-.448 1-1 1z"/><path d="m27 28c-.197 0-.393-.059-.561-.172-.274-.186-.439-.496-.439-.828v-4c0-.409.249-.776.629-.929l10-4c.308-.123.657-.085.932.101.274.186.439.496.439.828v4c0 .409-.249.776-.629.929l-10 4c-.12.048-.246.071-.371.071zm1-4.323v1.847l8-3.2v-1.847zm9-.677h.01z"/></g></svg>