<?xml version="1.0" encoding="iso-8859-1"?>
<!-- Generator: Adobe Illustrator 21.0.0, SVG Export Plug-In . SVG Version: 6.00 Build 0)  -->
<svg xmlns="http://www.w3.org/2000/svg" xmlns:xlink="http://www.w3.org/1999/xlink" version="1.1" id="Capa_1" x="0px" y="0px" viewBox="0 0 512 512" style="enable-background:new 0 0 512 512;" xml:space="preserve" width="512" height="512">
<g>
	<path style="fill:#484854;" d="M423.707,512c-4.204,0-7.612-3.407-7.612-7.611V291.774c0-4.204,3.408-7.611,7.612-7.611   s7.611,3.407,7.611,7.611v212.614C431.318,508.593,427.91,512,423.707,512z"/>
	<path style="fill:#484854;" d="M504.388,357.824c-1.948,0-3.896-0.743-5.382-2.23l-14.762-14.762   c-2.973-2.972-2.973-7.791,0-10.764c2.972-2.972,7.792-2.971,10.764,0.001l14.762,14.762c2.973,2.972,2.973,7.791,0,10.764   C508.284,357.08,506.336,357.824,504.388,357.824z"/>
	<g>
		<g>
			<path style="fill:#5D5E69;" d="M0,504.388h375.663v-96.967v0c0-67.475-54.716-122.173-122.212-122.173H123.066     C55.098,285.248,0,340.329,0,408.275V504.388"/>
			<path style="fill:#5D5E69;" d="M282.697,206.424"/>
			<path style="fill:#5D5E69;" d="M187.926,310.01"/>
		</g>
		<polygon style="fill:#F0EEF0;" points="149.185,282.64 184.298,503.881 192.417,503.881 224.285,281.625   "/>
		<g>
			<polygon style="fill:#484854;" points="153.902,504.388 188.219,504.388 155.982,298.878 131.626,288.729 57.731,361.8      126.451,418.26 91.989,466.169    "/>
			<polygon style="fill:#484854;" points="221.76,504.388 187.443,504.388 219.68,298.878 244.037,288.729 317.932,361.8      249.211,418.26 283.673,466.169    "/>
		</g>
		<path style="fill:#FFFFFF;stroke:#000000;stroke-width:15;stroke-linecap:round;stroke-linejoin:round;stroke-miterlimit:10;" d="    M115.771,285.838"/>
		<g>
			
				<path style="fill:#FFFFFF;stroke:#000000;stroke-width:15;stroke-linecap:round;stroke-linejoin:round;stroke-miterlimit:10;" d="     M282.697,206.424"/>
			<path style="fill:#FFDDCF;" d="M94.232,125.679v90.666c0,51.729,41.948,93.664,93.694,93.664h0     c51.746,0,93.694-41.935,93.694-93.664v-64.828c0,0-16.154,0.538-115.771,0.538c-35.797,0-57.963-11.275-71.535-26.72"/>
			<g>
				<path style="fill:#FFCBBE;" d="M249.657,151.866v64.479c0,46.282-33.581,84.719-77.712,92.301      c5.194,0.892,10.532,1.363,15.981,1.363h0c51.746,0,93.694-41.935,93.694-93.664v-64.828      C281.62,151.518,275.799,151.711,249.657,151.866z"/>
			</g>
		</g>
		<path style="fill:#994B39;" d="M76.722,88.801l25.879,25.879c0,0-11.583,84.224-9.446,86.361c0,0-44.427-42.298-16.916-112.222"/>
		<path style="fill:#BC6C59;" d="M75.924,38.474C94.452,20.172,137.809,0,184.237,0c70.841,0,128.269,57.41,128.269,128.229    c0,31.809-11.585,60.912-30.768,83.323h-0.118v-60.035c0,0-16.154,0.538-115.771,0.538    C52.232,152.056,75.924,38.474,75.924,38.474"/>
		<g>
			<g>
				<g>
					<g>
						<polyline style="fill:#F9CA64;" points="426.507,233.764 501.168,323.258 477.435,346.991 387.941,272.331       "/>
					</g>
					<polygon style="fill:#F2B93D;" points="426.507,233.764 409.212,251.059 469.445,323.258 460.14,332.563 477.435,346.991        501.168,323.258      "/>
					
						<ellipse transform="matrix(0.7071 -0.7071 0.7071 0.7071 -52.0079 343.5966)" style="fill:#F0EEF0;" cx="388.754" cy="234.577" rx="41.753" ry="41.753"/>
					<path style="fill:#DFDDE0;" d="M418.278,205.054c-12.262-12.262-30.252-15.3-45.356-9.119       c4.981,2.038,9.648,5.076,13.692,9.119c16.306,16.305,16.306,42.742,0,59.047c-4.044,4.044-8.711,7.081-13.692,9.12       c15.104,6.18,33.094,3.142,45.356-9.12C434.583,247.796,434.583,221.359,418.278,205.054z"/>
				</g>
			</g>
			<path style="fill:#994B39;" d="M270.914,73.747C247.162,33.8,202.889,23.912,201.016,23.51c-4.108-0.881-8.139,1.733-9.027,5.834     c-0.887,4.103,1.722,8.152,5.823,9.048c0.244,0.053,15.367,3.499,31.671,14.168l7.22,5.189     c7.703,6.066,15.223,13.849,21.127,23.777c1.423,2.393,3.952,3.722,6.549,3.722c1.323,0,2.664-0.345,3.883-1.07     C271.876,82.031,273.063,77.361,270.914,73.747z"/>
			<g>
				<polygon style="fill:#F9CA64;" points="479.042,97.935 481,124.978 504.388,138.696 479.274,148.916 473.454,175.398       455.974,154.671 428.989,157.32 443.301,134.29 432.443,109.445 458.768,115.939     "/>
				<polygon style="fill:#F9CA64;" points="378.962,0 392.873,23.274 419.932,25.008 402.096,45.431 408.808,71.701 383.874,61.049       360.963,75.551 363.389,48.545 342.517,31.237 368.951,25.199     "/>
			</g>
		</g>
	</g>
	<path style="fill:#FFCBBE;" d="M207.54,266.91h-43.639c-4.204,0-7.611-3.407-7.611-7.612s3.408-7.611,7.611-7.611h43.639   c4.204,0,7.611,3.407,7.611,7.611S211.744,266.91,207.54,266.91z"/>
</g>















</svg>
